<svg t="1737280289195" class="icon" viewBox="0 0 1024 1024" version="1.1" xmlns="http://www.w3.org/2000/svg" p-id="4365" width="32" height="32"><path d="M512 515.754667m-472.234667 0a472.234667 472.234667 0 1 0 944.469334 0 472.234667 472.234667 0 1 0-944.469334 0Z" fill="#040000" p-id="4366"></path><path d="M512 515.754667m-430.933333 0a430.933333 430.933333 0 1 0 861.866666 0 430.933333 430.933333 0 1 0-861.866666 0Z" fill="#F3C81E" p-id="4367"></path><path d="M117.418667 602.453333c0-251.392 203.776-455.168 455.168-455.168 97.450667 0 187.733333 30.72 261.973333 82.944-79.018667-89.088-194.218667-145.237333-322.56-145.237333-238.08 0-430.933333 193.024-430.933333 430.933333 0 74.581333 18.944 144.725333 52.394666 205.994667-10.410667-38.229333-16.042667-78.165333-16.042666-119.466667z" fill="#F6D85E" p-id="4368"></path><path d="M799.573333 519.509333c0.853333 8.704 1.194667 17.408 1.194667 26.282667 0 159.402667-129.365333 288.768-288.768 288.768-159.402667 0-288.768-129.365333-288.768-288.768 0-8.874667 0.512-17.578667 1.194667-26.282667h-42.666667c-0.682667 8.704-1.194667 17.408-1.194667 26.282667 0 182.954667 148.309333 331.264 331.264 331.264S843.264 728.746667 843.264 545.792c0-8.874667-0.512-17.578667-1.194667-26.282667h-42.496z" fill="#040000" p-id="4369"></path><path d="M441.344 334.165333c0 67.925333-102.058667 122.88-102.058667 122.88s-102.058667-54.954667-102.058666-122.88 102.058667 0.853333 102.058666 0.853334 102.058667-68.778667 102.058667-0.853334z" fill="#E22924" p-id="4370"></path><path d="M339.285333 476.330667l-8.021333-4.437334c-4.608-2.389333-110.933333-60.757333-110.933333-137.898666 0-25.429333 11.605333-36.864 21.333333-41.984 16.384-8.704 39.424-6.144 70.144 8.021333 10.922667 4.949333 20.821333 10.581333 27.648 14.677333 6.826667-4.096 16.725333-9.557333 27.648-14.677333 30.890667-14.165333 53.76-16.725333 70.144-8.021333 9.728 5.12 21.333333 16.725333 21.333333 41.984 0 77.141333-106.496 135.509333-110.933333 137.898666l-8.362667 4.437334z m-75.776-155.306667c-2.56 0-4.608 0.341333-5.973333 1.194667-2.901333 1.536-3.242667 9.557333-3.242667 11.776 0 43.008 55.466667 85.333333 84.992 103.253333 29.525333-17.92 84.992-60.416 84.992-103.253333 0-2.389333-0.170667-10.24-3.242666-11.776-10.410667-5.461333-46.592 9.728-72.192 26.965333l-9.557334 6.485333-9.557333-6.485333c-21.845333-14.677333-51.370667-28.16-66.218667-28.16z" fill="#070001" p-id="4371"></path><path d="M774.826667 325.802667c0 67.925333-102.058667 122.88-102.058667 122.88s-102.058667-54.954667-102.058667-122.88 102.058667 0.853333 102.058667 0.853333 102.058667-68.778667 102.058667-0.853333z" fill="#E22924" p-id="4372"></path><path d="M672.938667 467.968l-8.021334-4.437333c-4.608-2.389333-110.933333-60.757333-110.933333-137.898667 0-25.429333 11.605333-36.864 21.333333-41.984 16.384-8.704 39.424-6.144 70.144 8.021333 10.922667 4.949333 20.821333 10.581333 27.648 14.677334 6.826667-4.096 16.725333-9.557333 27.648-14.677334 30.890667-14.165333 53.76-16.725333 70.144-8.021333 9.728 5.12 21.333333 16.725333 21.333334 41.984 0 77.141333-106.496 135.509333-110.933334 137.898667l-8.362666 4.437333z m-75.776-155.136c-2.56 0-4.608 0.341333-5.973334 1.194667-2.901333 1.536-3.242667 9.557333-3.242666 11.776 0 42.837333 55.466667 85.162667 84.992 103.082666 29.525333-17.92 84.992-60.416 84.992-103.082666 0-2.389333-0.170667-10.24-3.242667-11.776-10.581333-5.632-46.592 9.728-72.192 26.965333l-9.557333 6.485333-9.557334-6.485333c-22.016-14.848-51.541333-28.16-66.218666-28.16z" fill="#070001" p-id="4373"></path><path d="M843.776 693.589333S954.026667 755.712 942.08 791.893333c-22.528 58.368-53.930667 125.098667-222.208 19.285334-13.994667-10.410667-21.674667-20.309333-21.674667-20.309334s66.730667-62.634667 103.082667-122.368c8.704 5.290667 42.496 25.088 42.496 25.088z" fill="#E22924" p-id="4374"></path><path d="M860.16 884.224c-38.229333 0-86.698667-19.114667-149.333333-58.368l-1.194667-0.853333c-15.36-11.434667-23.893333-22.186667-24.917333-23.381334l-9.728-12.288 11.434666-10.752c0.682667-0.682667 65.536-61.781333 100.181334-118.784l8.874666-14.506666 14.506667 8.704c8.192 4.949333 39.936 23.552 42.154667 24.917333 2.389333 1.365333 29.525333 16.896 55.466666 36.864 42.154667 32.426667 58.197333 58.368 50.517334 81.578667l-0.341334 0.853333c-10.410667 26.965333-26.112 67.754667-67.413333 81.408-9.216 2.901333-19.285333 4.608-30.208 4.608z m-130.56-87.04c68.949333 43.349333 119.637333 60.074667 150.186667 49.834667 23.893333-7.850667 34.986667-32.085333 46.08-60.586667 0.512-2.730667-4.437333-17.066667-38.912-43.690667-24.746667-19.114667-51.370667-34.133333-51.541334-34.304l-0.341333-0.170666c-0.853333-0.512-16.042667-9.386667-28.330667-16.725334-27.648 40.96-65.194667 80.384-84.48 99.669334 2.218667 1.877333 4.608 3.925333 7.338667 5.973333z" fill="#070001" p-id="4375"></path></svg>